<svg xmlns="http://www.w3.org/2000/svg" viewBox="0 0 926 205" width="926" height="205">
	<defs>
		<clipPath clipPathUnits="userSpaceOnUse" id="cp1">
			<path d="M-8 0L926 0L926 243L-8 243Z" />
		</clipPath>
		<linearGradient id="grd1" gradientUnits="userSpaceOnUse"  x1="460.864" y1="202.548" x2="460.864" y2="89.832">
			<stop offset="0" stop-color="#000000"  />
			<stop offset="0.521" stop-color="#191919"  />
			<stop offset="0.527" stop-color="#000000"  />
			<stop offset="1" stop-color="#000000"  />
		</linearGradient>
		<linearGradient id="grd2" gradientUnits="userSpaceOnUse"  x1="519.243" y1="202.548" x2="519.243" y2="89.832">
			<stop offset="0" stop-color="#000000"  />
			<stop offset="0.521" stop-color="#191919"  />
			<stop offset="0.527" stop-color="#000000"  />
			<stop offset="1" stop-color="#000000"  />
		</linearGradient>
		<linearGradient id="grd3" gradientUnits="userSpaceOnUse"  x1="586.793" y1="202.548" x2="586.793" y2="89.832">
			<stop offset="0" stop-color="#000000"  />
			<stop offset="0.521" stop-color="#191919"  />
			<stop offset="0.527" stop-color="#000000"  />
			<stop offset="1" stop-color="#000000"  />
		</linearGradient>
		<linearGradient id="grd4" gradientUnits="userSpaceOnUse"  x1="665.262" y1="202.548" x2="665.262" y2="89.832">
			<stop offset="0" stop-color="#000000"  />
			<stop offset="0.521" stop-color="#191919"  />
			<stop offset="0.527" stop-color="#000000"  />
			<stop offset="1" stop-color="#000000"  />
		</linearGradient>
		<linearGradient id="grd5" gradientUnits="userSpaceOnUse"  x1="747.162" y1="202.548" x2="747.162" y2="89.832">
			<stop offset="0" stop-color="#000000"  />
			<stop offset="0.521" stop-color="#191919"  />
			<stop offset="0.527" stop-color="#000000"  />
			<stop offset="1" stop-color="#000000"  />
		</linearGradient>
		<linearGradient id="grd6" gradientUnits="userSpaceOnUse"  x1="823.181" y1="202.548" x2="823.181" y2="89.832">
			<stop offset="0" stop-color="#000000"  />
			<stop offset="0.521" stop-color="#191919"  />
			<stop offset="0.527" stop-color="#000000"  />
			<stop offset="1" stop-color="#000000"  />
		</linearGradient>
		<linearGradient id="grd7" gradientUnits="userSpaceOnUse"  x1="894.932" y1="202.548" x2="894.932" y2="89.832">
			<stop offset="0" stop-color="#000000"  />
			<stop offset="0.521" stop-color="#191919"  />
			<stop offset="0.527" stop-color="#000000"  />
			<stop offset="1" stop-color="#000000"  />
		</linearGradient>
		<linearGradient id="grd8" gradientUnits="userSpaceOnUse"  x1="364.715" y1="66.142" x2="389.769" y2="66.142">
			<stop offset="0" stop-color="#997c41"  />
			<stop offset="0.574" stop-color="#fcdb9a"  />
			<stop offset="1" stop-color="#c69c47"  />
		</linearGradient>
		<linearGradient id="grd9" gradientUnits="userSpaceOnUse"  x1="361.366" y1="151.438" x2="392.537" y2="151.438">
			<stop offset="0" stop-color="#997c41"  />
			<stop offset="0.224" stop-color="#6d5015"  />
			<stop offset="0.477" stop-color="#997c41"  />
			<stop offset="0.751" stop-color="#f5d58e"  />
			<stop offset="1" stop-color="#bd8a42"  />
		</linearGradient>
		<linearGradient id="grd10" gradientUnits="userSpaceOnUse"  x1="366.474" y1="204.316" x2="387.443" y2="204.316">
			<stop offset="0" stop-color="#231f20"  />
			<stop offset="0.37" stop-color="#6d6e70"  />
			<stop offset="0.709" stop-color="#a6a8ab"  />
			<stop offset="1" stop-color="#504d4e"  />
		</linearGradient>
		<linearGradient id="grd11" gradientUnits="userSpaceOnUse"  x1="361.366" y1="199.942" x2="392.537" y2="199.942">
			<stop offset="0" stop-color="#6d5015"  />
			<stop offset="0.268" stop-color="#997c41"  />
			<stop offset="0.558" stop-color="#f5d58e"  />
			<stop offset="1" stop-color="#bd8a42"  />
		</linearGradient>
		<linearGradient id="grd12" gradientUnits="userSpaceOnUse"  x1="376.952" y1="196.598" x2="376.952" y2="191.352">
			<stop offset="0" stop-color="#8f6339"  />
			<stop offset="0.127" stop-color="#ac7d4b"  />
			<stop offset="0.267" stop-color="#bd8a42"  />
			<stop offset="0.473" stop-color="#e0c196"  />
			<stop offset="0.806" stop-color="#e0c196"  />
			<stop offset="1" stop-color="#885a2d"  />
		</linearGradient>
		<linearGradient id="grd13" gradientUnits="userSpaceOnUse"  x1="361.366" y1="101.702" x2="392.537" y2="101.702">
			<stop offset="0" stop-color="#6d5015"  />
			<stop offset="0.268" stop-color="#997c41"  />
			<stop offset="0.558" stop-color="#f5d58e"  />
			<stop offset="1" stop-color="#bd8a42"  />
		</linearGradient>
	</defs>
	<style>
		tspan { white-space:pre }
		.shp0 { fill: url(#grd1) } 
		.shp1 { fill: url(#grd2) } 
		.shp2 { fill: url(#grd3) } 
		.shp3 { fill: url(#grd4) } 
		.shp4 { fill: url(#grd5) } 
		.shp5 { fill: url(#grd6) } 
		.shp6 { fill: url(#grd7) } 
		.txt7 { font-size: 140px;fill: #f5d58e;font-weight: 700;font-family: "Oswald-Bold", "Oswald" } 
		.shp8 { fill: url(#grd8) } 
		.shp9 { fill: url(#grd9) } 
		.shp10 { fill: #404041 } 
		.shp11 { fill: url(#grd10) } 
		.shp12 { fill: url(#grd11) } 
		.shp13 { fill: url(#grd12) } 
		.shp14 { fill: url(#grd13) } 
		.shp15 { fill: #be1e2d } 
		.shp16 { fill: #000000 } 
	</style>
	<g id="Page 1" clip-path="url(#cp1)">
		<path id="Path 1" class="shp0" d="M436.36 202.82L436.36 89.42L485.36 89.42L485.36 106.36L461.42 106.36L461.42 134.92L482.28 134.92L482.28 152.42L461.42 152.42L461.42 202.82L436.36 202.82Z" />
		<path id="Path 2" class="shp1" d="M493.62 202.82L493.62 89.42L544.58 89.42L544.58 106.5L518.68 106.5L518.68 134.64L538.42 134.64L538.42 152L518.68 152L518.68 185.88L544.86 185.88L544.86 202.82L493.62 202.82Z" />
		<path id="Path 3" fill-rule="evenodd" class="shp2" d="M582.1 89.42C592 89.42 599.69 90.66 605.2 93.13C610.71 95.6 614.58 99.48 616.82 104.75C619.06 110.02 620.18 116.86 620.18 125.26L620.18 166.42C620.18 174.91 619.06 181.84 616.82 187.21C614.58 192.58 610.73 196.52 605.27 199.04C599.81 201.56 592.18 202.82 582.38 202.82L553.4 202.82L553.4 89.42L582.1 89.42ZM578.46 185.46L582.38 185.46C586.21 185.46 588.96 184.9 590.64 183.78C592.32 182.66 593.37 180.98 593.79 178.74C594.21 176.5 594.42 173.7 594.42 170.34L594.42 120.92C594.42 117.56 594.16 114.85 593.65 112.8C593.14 110.75 592.04 109.25 590.36 108.32C588.68 107.39 585.97 106.92 582.24 106.92L578.46 106.92L578.46 185.46Z" />
		<path id="Path 4" fill-rule="evenodd" class="shp3" d="M665.12 87.88C673.71 87.88 680.5 89.35 685.49 92.29C690.48 95.23 694.05 99.45 696.2 104.96C698.35 110.47 699.42 117.14 699.42 124.98L699.42 167.12C699.42 174.87 698.35 181.54 696.2 187.14C694.05 192.74 690.48 197.03 685.49 200.02C680.5 203 673.71 204.5 665.12 204.5C656.63 204.5 649.91 203 644.96 200.02C640.01 197.03 636.47 192.74 634.32 187.14C632.17 181.54 631.1 174.87 631.1 167.12L631.1 124.98C631.1 117.14 632.17 110.47 634.32 104.96C636.47 99.45 640.01 95.23 644.96 92.29C649.91 89.35 656.63 87.88 665.12 87.88ZM665.12 186.72C667.73 186.72 669.65 186.07 670.86 184.76C672.07 183.45 672.87 181.77 673.24 179.72C673.61 177.67 673.8 175.57 673.8 173.42L673.8 118.82C673.8 116.58 673.61 114.46 673.24 112.45C672.87 110.44 672.07 108.79 670.86 107.48C669.65 106.17 667.73 105.52 665.12 105.52C662.69 105.52 660.87 106.17 659.66 107.48C658.45 108.79 657.65 110.44 657.28 112.45C656.91 114.46 656.72 116.58 656.72 118.82L656.72 173.42C656.72 175.57 656.89 177.67 657.21 179.72C657.54 181.77 658.28 183.45 659.45 184.76C660.62 186.07 662.51 186.72 665.12 186.72Z" />
		<path id="Path 5" fill-rule="evenodd" class="shp4" d="M743.1 89.42C750.75 89.42 757.38 90.26 762.98 91.94C768.58 93.62 772.94 96.63 776.07 100.97C779.2 105.31 780.76 111.45 780.76 119.38C780.76 124.05 780.39 128.2 779.64 131.84C778.89 135.48 777.52 138.63 775.51 141.29C773.5 143.95 770.63 146.17 766.9 147.94L782.44 202.82L756.54 202.82L744.08 152L736.94 152L736.94 202.82L711.88 202.82L711.88 89.42L743.1 89.42ZM736.94 137.58L743.94 137.58C747.49 137.58 750.24 136.95 752.2 135.69C754.16 134.43 755.54 132.61 756.33 130.23C757.12 127.85 757.52 124.98 757.52 121.62C757.52 116.77 756.63 112.99 754.86 110.28C753.09 107.57 749.82 106.22 745.06 106.22L736.94 106.22L736.94 137.58Z" />
		<path id="Path 6" fill-rule="evenodd" class="shp5" d="M837.6 89.42L858.74 202.82L835.64 202.82L831.86 178.88L815.2 178.88L811.28 202.82L787.62 202.82L809.04 89.42L837.6 89.42ZM817.44 163.9L829.48 163.9L823.46 119.66L817.44 163.9Z" />
		<path id="Path 7" class="shp6" d="M872.46 95.51C866.77 100.6 863.92 107.95 863.92 117.56C863.92 124.37 865.39 130.09 868.33 134.71C871.27 139.33 874.89 143.46 879.18 147.1L888.98 155.64C892.81 158.91 895.84 162.15 898.08 165.37C900.32 168.59 901.44 172.53 901.44 177.2C901.44 179.16 901.04 181.03 900.25 182.8C899.46 184.57 897.75 185.46 895.14 185.46C893.09 185.46 891.34 184.81 889.89 183.5C888.44 182.19 887.32 180.05 886.53 177.06C885.74 174.07 885.29 170.15 885.2 165.3L863.78 168.52C864.06 176.92 865.41 183.76 867.84 189.03C870.27 194.3 873.86 198.2 878.62 200.72C883.38 203.24 889.31 204.5 896.4 204.5C902.47 204.5 907.72 203.24 912.15 200.72C916.58 198.2 920.01 194.77 922.44 190.43C924.87 186.09 926.08 181.26 926.08 175.94C926.08 168.1 924.38 161.52 920.97 156.2C917.56 150.88 913.39 146.12 908.44 141.92L899.06 133.66C895.79 130.77 893.16 127.99 891.15 125.33C889.14 122.67 888.14 119.24 888.14 115.04C888.14 113.08 888.68 111.12 889.75 109.16C890.82 107.2 892.53 106.22 894.86 106.22C897.01 106.22 898.59 106.9 899.62 108.25C900.65 109.6 901.32 111.52 901.65 113.99C901.98 116.46 902.19 119.38 902.28 122.74L923.84 120.08C923.75 116.72 923.35 113.2 922.65 109.51C921.95 105.82 920.64 102.32 918.73 99.01C916.82 95.7 914.02 93.01 910.33 90.96C906.64 88.91 901.77 87.88 895.7 87.88C885.9 87.88 878.15 90.42 872.46 95.51Z" />
		<text id="FLARE " style="transform: matrix(1,0,0,1,-8,202.819)" >
			<tspan x="0" y="0" class="txt7" dx="0 0 0 0 0" >FLARE</tspan>
		</text>
		<path id="Path 9" class="shp8" d="M364.72 91.6L389.77 91.6C389.77 70.49 382.44 40.68 377.23 40.68C372.17 40.68 364.72 69.4 364.72 91.6Z" />
		<path id="Path 10" class="shp9" d="M361.42 111.52L361.37 111.8L361.37 191.35L392.54 191.35L392.54 111.8L392.5 111.52L361.42 111.52Z" />
		<path id="Path 11" class="shp10" d="M392.54 203.96L361.37 203.96L361.37 203.04L392.54 203.04L392.54 203.96Z" />
		<path id="Path 12" class="shp11" d="M366.43 203.96C366.43 203.96 365.99 204.32 366.43 204.68L387.49 204.68C387.93 204.33 387.49 203.96 387.49 203.96L366.43 203.96Z" />
		<path id="Path 13" class="shp12" d="M361.37 203.29L392.54 203.29L392.54 196.6L361.37 196.6L361.37 203.29Z" />
		<path id="Path 14" class="shp13" d="M361.37 191.35C361.37 191.35 362.7 192.97 362.7 193.98C362.7 195.14 361.37 196.6 361.37 196.6L392.54 196.6C392.54 196.6 390.43 195.41 390.43 193.98C390.43 192.54 392.54 191.35 392.54 191.35L361.37 191.35Z" />
		<path id="Path 15" class="shp14" d="M364.73 91.6L364.72 104.44L361.37 111.8L392.54 111.8L389.77 103.92L389.77 91.6L364.73 91.6Z" />
		<path id="Path 16" class="shp15" d="M389.77 91.93L364.72 91.93L364.72 90.81L389.77 90.81L389.77 91.93Z" />
		<path id="Path 17" class="shp16" d="M404.66 41.27C405.14 39.48 406.3 38.42 407.88 37.76C410.21 36.77 411.65 33.28 410.8 30.78C408.91 25.2 410.92 20.17 416.14 17.44C418.25 20.05 418.26 25.21 416.06 28.38C415.35 29.41 414.46 30.34 413.58 31.24C412.42 32.43 411.81 33.99 411.97 35.89C414.03 35.32 416.1 34.79 418.13 34.15C418.58 34.01 418.99 33.51 419.28 33.08C423.47 26.66 430.05 25.01 436.7 28.85C438.96 30.15 441.06 31.74 443.24 33.2C437.92 40.23 429.97 41.96 422.24 37.5C419.63 35.99 417.39 35.64 414.74 36.77C413.9 37.14 413.01 37.42 412 37.79C413.18 39.47 414.41 40.63 416.4 41.09C421.32 42.22 424.56 46.88 424.07 51.87C418.96 51.9 414.56 48.38 413.74 43.32C413.4 41.19 411.94 40.09 410.49 39.03C409.99 38.67 408.75 39.11 407.95 39.44C406.8 39.93 405.75 40.65 404.66 41.27ZM306.45 30.15C309.75 28.21 312.71 26.09 315.97 24.63C321.08 22.33 326.97 24.66 330.55 29.83C331.05 30.54 331.96 31.1 332.8 31.42C334.48 32.06 336.24 32.48 338.32 33.1C337.8 31.24 337.87 29.54 336.37 28.24C332.56 24.93 331.21 20.85 332.94 15.96C333.12 15.45 333.36 14.96 333.56 14.47C338.51 16.36 341.08 22.01 339.27 27.35C338.51 29.58 339.38 31.45 339.98 33.37C340.18 33.98 341.31 34.36 342.07 34.73C343.38 35.37 344.86 35.8 344.94 37.83C343.54 37.18 342.22 36.59 340.93 35.94C340.11 35.53 339.55 35.7 338.92 36.37C337.62 37.75 336.53 39.06 336.06 41.1C334.86 46.3 330.9 48.38 325.96 49.06C325.22 44.05 328.81 39.1 333.94 37.98C335.58 37.62 337.1 36.46 338.05 34.8C336.65 34.33 335.25 33.89 333.86 33.4C332.07 32.77 330.56 32.91 328.8 33.96C320.38 38.99 313.69 37.88 306.45 30.15ZM397.31 45.72C398.32 45.85 399.15 45.75 399.73 46.09C401.83 47.28 403.88 48.55 405.86 49.93C407.5 51.06 411.23 50.94 412.77 49.68C413.23 49.3 414.12 49.17 414.7 49.34C415 49.42 415.32 50.51 415.15 50.96C414.8 51.87 414 51.7 413.08 51.58C411.62 51.39 410.09 51.68 408.59 51.76C408.51 51.95 408.43 52.13 408.35 52.32C409.25 52.84 410.09 53.62 411.06 53.82C412.87 54.19 414.73 54.95 416.65 53.92C416.91 53.77 417.78 54.3 418.04 54.72C418.24 55.06 418.09 55.97 417.8 56.15C417.33 56.43 416.56 56.52 416.02 56.36C414.57 55.93 413.18 55.32 411.67 55.01C412.14 56.51 412.83 57.57 414.48 57.57C415.35 57.58 416.22 57.92 417.09 57.93C418.13 57.95 419.18 57.69 420.22 57.71C420.8 57.72 421.56 57.89 421.89 58.28C422.14 58.59 422.07 59.59 421.77 59.85C421.38 60.18 420.33 60.38 420.06 60.13C418.38 58.53 416.22 59.2 414.27 58.59C415.12 61.11 415.7 61.38 417.92 60.82C418.44 60.69 419.27 61.08 419.65 61.51C419.88 61.75 419.64 62.88 419.35 63.01C418.82 63.25 418.07 63.09 417.44 62.97C417.2 62.93 417.03 62.52 416.72 62.15C416.91 64.6 418.62 65.35 420.45 64.46C420.89 64.24 421.88 64.52 422.22 64.92C422.49 65.23 422.34 66.39 422.01 66.6C421.56 66.89 420.74 66.73 420.13 66.58C419.64 66.45 419.22 66.04 418.77 65.75C418.6 65.94 418.44 66.13 418.27 66.32C419.03 67.11 419.85 67.85 420.54 68.7C420.9 69.15 421.34 69.88 421.2 70.31C421.06 70.74 420.21 71.27 419.75 71.2C419.31 71.13 418.82 70.43 418.61 69.9C418.28 69.05 418.16 68.11 417.95 67.21C417.78 67.27 417.6 67.34 417.42 67.4C417.59 67.73 417.92 68.08 417.89 68.4C417.83 68.99 417.73 69.82 417.34 70.06C416.94 70.31 415.94 70.17 415.65 69.83C415.35 69.47 415.35 68.51 415.63 68.07C417.01 65.94 417.02 64.98 415.04 63.28C415.13 63.83 415.37 64.42 415.27 64.93C415.16 65.55 414.88 66.29 414.42 66.64C414.15 66.85 413.04 66.54 412.92 66.22C412.72 65.68 412.75 64.74 413.1 64.35C414.89 62.36 414.95 61.66 412.9 59.28C412.44 61.66 412.07 63.86 411.56 66.03C411.43 66.55 410.9 67.2 410.42 67.35C410.02 67.47 409.18 67.06 408.98 66.66C408.78 66.27 408.97 65.25 409.28 65.11C411.42 64.08 411.31 61.99 411.66 60.2C412.16 57.62 411.94 57.3 410.06 55.84C409.73 58 409.46 60.07 409.04 62.12C408.95 62.59 408.41 63.23 407.97 63.31C407.53 63.4 406.67 63.03 406.54 62.66C406.37 62.18 406.54 61.22 406.91 60.97C409.26 59.35 408.83 56.84 409 54.59C409.04 54.03 408.07 53.39 407.57 52.79C407.38 52.83 407.2 52.87 407.01 52.91C406.93 54.64 406.92 56.38 406.74 58.09C406.68 58.64 406.27 59.37 405.82 59.59C405.46 59.77 404.51 59.44 404.32 59.08C404.08 58.64 404.14 57.65 404.47 57.37C406.17 55.92 405.95 53.92 406.12 52.07C406.15 51.63 405.58 51 405.13 50.7C402.67 49.07 400.16 47.52 397.31 45.72ZM352.44 43.32C349.97 44.83 347.52 46.36 345.03 47.84C343.76 48.6 343.31 49.68 343.77 51.03C344.22 52.32 344.92 53.53 345.39 54.81C345.59 55.36 345.7 56.14 345.46 56.59C345.27 56.94 344.35 57.2 343.95 57.03C343.53 56.86 343.14 56.15 343.09 55.64C342.92 53.91 342.9 52.17 342.81 50.1C341.24 51.04 340.46 51.88 340.78 53.34C341.08 54.67 341.34 56.02 341.76 57.32C341.89 57.74 342.6 57.94 342.85 58.35C343.15 58.86 343.48 59.56 343.35 60.05C343.24 60.44 342.37 60.95 341.98 60.84C341.5 60.71 340.92 60.07 340.81 59.56C340.38 57.56 340.12 55.52 339.76 53.26C338.43 54.24 337.65 55.15 338 56.67C338.29 57.9 338.41 59.18 338.84 60.35C339.11 61.09 339.87 61.63 340.3 62.32C340.61 62.83 341 63.49 340.9 63.98C340.81 64.39 339.99 64.97 339.61 64.9C339.1 64.8 338.42 64.21 338.3 63.71C337.79 61.52 337.45 59.29 337.02 56.97C334.98 58.56 334.95 60 336.53 61.67C336.94 62.1 337.05 63.02 336.93 63.64C336.88 63.89 335.62 64.25 335.31 64.02C334.88 63.7 334.74 62.89 334.65 62.26C334.57 61.73 334.73 61.17 334.81 60.3C332.94 62.21 332.83 63.74 333.98 65.29C334.33 65.77 334.48 66.6 334.33 67.15C334.24 67.48 333.16 67.89 332.87 67.71C332.39 67.41 332.17 66.67 331.87 66.11C331.8 65.98 331.82 65.8 331.53 65.6C331.43 66.14 331.45 66.74 331.22 67.22C330.95 67.79 330.55 68.5 330.05 68.68C329.71 68.8 328.71 68.15 328.67 67.76C328.6 67.23 329.08 66.57 329.47 66.07C330.1 65.28 330.84 64.58 331.53 63.84C331.38 63.65 331.23 63.46 331.09 63.27C330.65 63.51 330.24 63.86 329.77 63.95C329.11 64.09 328.35 64.17 327.74 63.97C327.51 63.89 327.32 62.66 327.55 62.45C327.99 62.06 328.84 61.74 329.36 61.9C331.69 62.6 332.16 62.43 333.46 59.5C332.82 60.08 332.54 60.55 332.19 60.61C331.61 60.71 330.84 60.75 330.44 60.44C330.12 60.2 329.98 59.26 330.19 58.88C330.41 58.49 331.24 58.1 331.67 58.22C334.56 58.99 334.5 58.29 335.74 56.11C333.71 56.58 331.76 56.04 330.04 57.36C329.63 57.68 328.65 57.67 328.2 57.39C327.88 57.19 327.73 56 327.99 55.74C328.38 55.36 329.29 55.13 329.81 55.31C332.39 56.23 336.98 54.92 338.18 52.3C336.79 52.76 335.42 53.28 334 53.68C333.41 53.84 332.58 53.98 332.16 53.69C331.82 53.46 331.67 52.31 331.93 52.02C332.29 51.63 333.21 51.4 333.73 51.57C336 52.34 339.95 51.37 341.43 49.3C339.54 49.54 337.98 48.11 336.14 49.18C335.88 49.33 334.93 48.84 334.74 48.44C334.54 48.03 334.7 47.08 335.03 46.87C335.46 46.59 336.37 46.55 336.79 46.83C339.66 48.76 342.02 48.69 344.81 46.75C346.69 45.44 348.74 44.36 350.76 43.27C351.24 43.01 351.9 43.08 352.48 43.01C352.47 43.11 352.45 43.22 352.44 43.32ZM348.36 57.64C348.98 55.54 349.47 53.39 350.26 51.35C351.19 48.93 353.23 47.86 355.74 47.59C355.93 47.56 356.13 47.55 356.33 47.55C359.51 47.6 359.13 47.03 359.01 50.3C358.9 53.26 357.58 55.53 354.65 56.49C352.72 57.11 350.73 57.52 348.77 58.03C348.63 57.9 348.49 57.77 348.36 57.64ZM360.1 49.27C363.91 48.72 366.07 51.15 366.06 55.97C362.18 56.56 358.9 52.87 360.1 49.27ZM398 23.06C398.99 26.08 398.39 28.99 397.58 31.89C395.57 39.07 390.17 42.8 383.82 45.69C378.86 47.96 374.49 47.27 370.04 44.21C367.76 42.64 364.91 41.8 362.21 40.96C357.3 39.45 354.64 35.7 355.05 30.44C356.8 31.57 358.54 32.76 360.34 33.85C364.16 36.16 368.47 37.03 372.79 37.85C377.48 38.74 382.21 38.91 386.8 37.43C392.67 35.53 396.56 31.58 397.9 24.03C397.96 23.71 397.97 23.38 398 23.06ZM388.34 3.77C390.99 2.49 393.4 2.66 395.81 3.19C398.08 3.68 399.55 4.95 400.22 7.32C400.89 9.67 402.19 11.68 404.45 12.97C406.52 14.15 407.38 16.24 407.68 18.47C408.55 25.02 406.52 30.6 401.72 35.13C400.13 36.63 398.43 38.01 396.73 39.37C396.17 39.82 395.46 40.07 394.68 40.28C398.85 34.33 401.5 28.14 399.92 20.67C398.41 13.48 395.08 7.67 388.34 3.77ZM372.57 34.73C374.81 34.46 376.82 34.35 378.78 33.96C384.36 32.85 387.42 29.01 388.95 23.87C389.87 20.77 388.62 17.89 386.89 15.34C385.56 13.36 383.93 11.58 382.49 9.45C383.89 10.09 385.44 10.53 386.66 11.42C389.03 13.14 391.51 14.87 393.41 17.06C396.56 20.69 396.57 24.94 393.9 28.91C391.49 32.5 388.46 35.58 384.13 36.44C381.61 36.94 378.85 36.37 376.22 36.06C375.03 35.92 373.9 35.24 372.57 34.73ZM347.82 26.45C349.92 27.06 351.37 28.46 352.29 30.32C353.6 32.97 354.8 35.68 355.96 38.4C356.91 40.66 358.7 41.96 360.86 42.74C363.7 43.77 366.61 44.58 369.45 45.57C370.28 45.86 370.99 46.47 371.68 47.11C367.95 47.81 364.34 49.13 360.6 47.86C359.58 47.51 358.47 47.05 357.74 46.31C355.2 43.7 352.2 41.79 348.9 40.42C346.44 39.39 345.26 35.71 345.88 33.24C346.44 31.02 347.14 28.83 347.82 26.45ZM395.9 18.27C389.11 5.46 374.15 4.17 365.35 8.16C365.15 5.08 366.68 2.73 369.62 2.03C372.81 1.27 376.04 0.65 379.28 0.1C382.14 -0.38 384.28 1.01 385.94 3.19C387.14 4.77 388.53 5.99 390.22 7.12C393.67 9.4 395.38 12.99 396.1 17.03C396.15 17.31 396.01 17.64 395.9 18.27ZM360.78 21.93C359.53 19.71 359.56 17.54 360.48 15.46C362.3 11.35 365.5 9.03 370.01 8.64C376.84 8.06 382.32 10.25 385.82 16.43C386.23 17.14 386.52 17.92 386.84 18.67C386.92 18.85 386.93 19.07 386.99 19.38C378.17 11.99 368.46 12.91 360.78 21.93ZM407.11 30.8C406.98 32.2 407.11 33.68 406.66 34.96C404.64 40.71 400.89 44.58 394.73 46.06C393.05 46.46 391.49 47.86 390.14 49.09C387.03 51.92 383.42 52.91 379.35 52.48C376.43 52.17 374.44 50.38 372.55 47.85C379.52 49.77 385.31 47.27 390.93 44.31C394.21 42.58 397.39 40.59 400.4 38.43C402.75 36.75 404.65 34.51 405.95 31.85C406.14 31.47 406.34 31.1 406.53 30.73C406.73 30.75 406.92 30.78 407.11 30.8ZM364.44 9.01C361.12 10.92 359.16 13.26 358.48 16.6C357.42 21.71 359.78 27.77 364.15 30.6C366.09 31.86 368.16 32.91 370.09 34C369.05 34 367.78 34.22 366.62 33.96C360.29 32.59 355.08 29.66 352.76 23.18C350.42 16.6 355.05 9.3 361.73 8.87C362.46 8.82 363.21 8.94 364.44 9.01ZM361.98 23.26C369.1 29.98 381.89 27.4 385.81 19.58C387.05 21.92 386.86 24.2 385.85 26.4C383.89 30.69 380.42 32.76 375.77 33.23C369.48 33.86 363.31 29.57 361.98 23.26ZM364.22 7.44C351.75 8.02 347.98 17.9 352.88 27.71C351.39 26.94 349.63 26.02 347.86 25.12C345.72 24.04 345.26 22.65 346.53 20.63C347.46 19.15 347.68 17.66 347.4 15.93C346.47 10.23 352.05 3.77 357.59 4C359.96 4.1 362.88 5.58 364.22 7.44ZM364.1 19.92C370.64 22.35 376.89 22.01 383.15 19.69C383.43 21.14 382.86 22.3 381.01 23.23C377.09 25.2 372.93 25.6 368.69 24.6C367.44 24.31 366.22 23.7 365.13 23C364.05 22.3 363.6 21.19 364.1 19.92ZM381.13 19.71C376.41 17.94 371.84 18.31 366.9 19.59C367.47 18.92 367.92 17.98 368.65 17.62C372.05 15.92 375.62 15.77 379.21 16.96C380.39 17.35 381.49 18.05 381.13 19.71Z" />
	</g>
</svg>